<svg width="309" height="289" viewBox="0 0 309 289" fill="none" xmlns="http://www.w3.org/2000/svg">
<path fill-rule="evenodd" clip-rule="evenodd" d="M203.9 85.736L194.279 123.659C194.279 123.659 194.708 121.436 197.743 121.134C200.778 120.833 207.68 130.11 207.68 130.11C207.68 130.11 208.918 127.409 208.173 125.577C207.428 123.735 204.382 119.683 202.105 117.259C199.829 114.824 198.541 113.786 198.261 111.415C197.984 109.03 199.297 106.164 202.066 106.125C204.835 106.086 209.284 112.198 210.068 113.319C210.864 114.443 211.359 115.151 211.359 115.151C211.359 115.151 214.078 106.908 212.51 100.016C210.942 93.1233 205.899 87.2012 203.9 85.7388V85.736ZM159.669 252.181V286L181.816 239.493C217.2 219.218 261.787 193.617 278.411 183.834C307.651 166.616 305.932 140.207 305.932 140.207C305.932 140.207 307.651 113.784 278.411 96.5793C249.159 79.3722 133.399 13.1972 133.399 13.1972C99.102 -9.14629 50.4466 6.40554 50.8246 48.3412V232.055C50.4466 274.005 99.102 289.557 133.399 267.199L143.563 261.392V213.182H130.075C130.075 213.182 120.494 211.504 114.387 204.824C108.269 198.158 108.647 189.574 108.647 189.574C108.647 189.574 109.708 190.888 110.316 191.355C110.91 191.822 111.657 192.289 111.657 192.289C111.657 192.289 112.315 198.007 116.031 202.022C119.76 206.024 126.853 210.114 131.985 210.114H168.127C168.127 210.114 174.979 210.265 181.262 203.474C187.531 196.696 187.621 191.406 187.621 189.879V128.653C187.621 128.653 188.013 125.485 192.246 125.18C192.246 125.18 190.692 126.506 190.692 128.032V190.584C190.452 200.493 179.428 213.182 165.689 213.182H159.671V252.176L159.669 252.181ZM172.865 83.6026C172.865 83.6026 165.381 81.0918 155.343 79.663C145.305 78.2481 140.122 78.4131 138.845 79.031C137.568 79.649 136.784 84.9 136.734 85.6829C136.695 86.4658 137.378 87.7017 139.819 87.8806C142.258 88.0456 159.212 89.3961 169.779 92.8409C180.361 96.2885 189.651 103.217 191.384 103.522C193.117 103.824 194.682 102.096 194.811 99.1405C194.937 96.1738 193.207 94.1551 191.966 93.031C190.729 91.907 185.809 87.9701 172.865 83.5998V83.6026ZM168.732 99.4956C168.732 99.4956 161.262 96.9847 151.224 95.5559C141.186 94.1299 136.003 94.306 134.715 94.924C133.438 95.5419 132.654 100.782 132.618 101.565C132.567 102.359 133.251 103.597 135.689 103.762C138.128 103.927 155.082 105.278 165.649 108.723C176.231 112.17 185.521 119.113 187.254 119.404C188.998 119.706 190.566 117.989 190.692 115.022C190.807 112.07 189.074 110.037 187.836 108.913C186.599 107.789 181.679 103.863 168.735 99.4956H168.732ZM160.402 130.236C160.402 130.236 152.993 127.826 143.045 126.461C133.097 125.085 127.95 125.25 126.687 125.843C125.425 126.436 124.641 131.474 124.602 132.229C124.562 132.987 125.234 134.173 127.648 134.338C130.061 134.503 146.875 135.789 157.356 139.097C167.836 142.415 177.04 149.07 178.759 149.347C180.478 149.638 182.032 147.982 182.158 145.144C182.284 142.304 180.565 140.36 179.339 139.287C178.112 138.202 173.232 134.427 160.402 130.236ZM156.194 145.209C156.194 145.209 148.774 142.709 138.837 141.219C128.888 139.728 123.742 139.829 122.479 140.411C121.202 140.992 120.432 146.017 120.393 146.772C120.343 147.53 121.026 148.715 123.44 148.905C125.853 149.107 142.656 150.608 153.133 154.044C163.614 157.478 173.081 163.814 174.8 164.13C176.519 164.432 178.073 162.805 178.199 159.953C178.314 157.126 176.354 155.585 175.127 154.486C173.89 153.401 169.021 149.562 156.191 145.209H156.194ZM185.952 154.741C185.952 154.741 179.744 171.668 178.594 174.749C177.432 177.817 168.671 186.44 153.842 188.839C139.013 191.238 120.192 189.104 117.663 188.839C115.149 188.573 109.7 187.603 109.7 187.603C109.7 187.603 112.671 192.362 123.328 196.262C133.984 200.152 160.999 200.074 169.746 198.572C178.507 197.082 185.952 192.096 185.952 192.096V154.743V154.741ZM150.594 182.5C153.78 181.893 156.421 181.161 158.381 180.481C156.496 178.6 154.083 175.988 153.007 174.056C151.098 170.634 151.061 162.656 151.061 162.391C151.061 162.125 150.997 159.776 147.245 159.564C143.479 159.363 142.972 162.215 142.972 162.215C142.972 162.215 142.465 168.324 144.54 174.232C145.691 177.54 148.421 180.518 150.597 182.5H150.594ZM136.776 183.901C139.898 183.837 142.818 183.624 145.487 183.294C143.35 180.655 140.228 176.603 139.192 174.168C137.563 170.318 138.131 161.619 138.142 161.342C138.167 161.051 138.282 158.476 134.553 157.998C130.823 157.517 130.089 160.573 130.089 160.573C130.089 160.573 129.129 167.2 130.733 173.79C131.719 177.867 134.679 181.631 136.776 183.901ZM124.602 183.359C126.573 183.535 128.572 183.686 130.582 183.8C131.669 183.851 132.758 183.89 133.805 183.915C131.834 181.48 127.914 176.48 126.702 173.639C125.058 169.8 125.399 161.105 125.411 160.814C125.425 160.537 125.475 157.948 121.922 157.47C118.358 156.989 117.739 160.059 117.739 160.059C117.739 160.059 116.969 166.674 118.649 173.265C119.685 177.33 122.555 181.08 124.602 183.364V183.359ZM113.186 181.933C116.106 182.388 119.318 182.816 122.642 183.157C120.631 180.809 116.484 175.798 115.196 172.957C113.463 169.157 113.592 160.447 113.592 160.157C113.606 159.88 113.592 157.305 110.028 156.899C106.449 156.497 105.906 159.575 105.906 159.575C105.906 159.575 105.956 166.316 107.802 172.868C108.787 176.402 111.19 179.673 113.186 181.933ZM102.022 179.925C104.069 180.342 106.838 180.884 110.075 181.426C108.154 178.902 105.816 175.594 104.968 173.486C103.439 169.675 104.058 160.976 104.069 160.685C104.094 160.394 104.234 157.819 100.681 157.416C97.142 157.014 96.9152 160.042 96.9152 160.042C96.9152 160.042 96.6744 166.277 98.1528 172.831C98.7464 175.482 100.34 177.931 102.022 179.925ZM187.604 117.905C187.388 117.841 187.072 117.665 186.87 117.564L186.795 117.514C186.996 116.957 187.086 116.328 187.111 115.783C187.187 113.775 186.226 112.084 184.698 110.697C183.295 109.436 181.385 108.272 179.73 107.339C175.382 104.928 170.502 102.996 165.736 101.394C164.107 100.852 162.362 100.385 160.693 99.9541C156.572 98.8944 152.349 98.0472 148.116 97.4433C144.375 96.912 140.455 96.445 136.65 96.3584C136.423 96.3444 136.031 96.3444 135.575 96.3444C135.6 96.3052 135.625 96.2689 135.65 96.2298C136.535 95.9781 139.013 95.9893 139.772 96.0145C143.476 96.1039 147.307 96.5569 150.961 97.0742C155.093 97.6669 159.215 98.489 163.236 99.5235C164.865 99.9402 166.559 100.396 168.141 100.938C172.792 102.504 177.561 104.372 181.794 106.732C183.424 107.641 185.283 108.765 186.649 110C188.142 111.365 189.077 113.006 189.001 114.961C188.962 115.73 188.8 116.652 188.368 117.321C188.242 117.511 187.965 117.863 187.699 117.902C187.674 117.902 187.635 117.916 187.61 117.902L187.604 117.905ZM127.368 127.624C127.443 127.434 127.519 127.272 127.595 127.168C128.493 126.917 130.932 126.928 131.691 126.953C135.37 127.043 139.161 127.47 142.79 127.976C146.887 128.533 150.983 129.327 154.976 130.325C156.58 130.728 158.249 131.17 159.831 131.676C164.42 133.177 169.147 134.983 173.358 137.243C174.962 138.115 176.81 139.2 178.163 140.386C179.605 141.661 180.551 143.212 180.464 145.08C180.439 145.813 180.288 146.657 179.87 147.289C179.73 147.479 179.479 147.806 179.201 147.845H179.176C179.428 147.278 179.543 146.61 179.568 146.014C179.644 144.107 178.683 142.53 177.216 141.241C175.839 140.03 173.968 138.932 172.336 138.048C168.063 135.738 163.258 133.921 158.593 132.392C156.989 131.874 155.295 131.432 153.663 131.016C149.591 130.006 145.445 129.198 141.273 128.631C137.582 128.125 133.738 127.683 129.997 127.596C129.515 127.582 128.379 127.571 127.368 127.621V127.624ZM175.153 162.631C174.926 162.567 174.609 162.405 174.408 162.304C174.282 162.24 174.156 162.178 174.03 162.114C174.307 161.546 174.408 160.864 174.433 160.271C174.523 158.278 173.321 157.254 171.865 155.965C170.513 154.755 168.668 153.642 167.061 152.758C162.852 150.435 158.137 148.581 153.534 147.026C151.955 146.495 150.272 146.028 148.653 145.611C144.658 144.563 140.589 143.718 136.479 143.112C132.85 142.569 129.07 142.088 125.391 141.951C124.988 141.937 124.114 141.912 123.255 141.937C123.294 141.862 123.33 141.786 123.37 141.736C124.268 141.496 126.707 141.546 127.466 141.585C131.131 141.711 134.925 142.192 138.554 142.734C142.65 143.352 146.733 144.185 150.714 145.234C152.333 145.665 154.013 146.118 155.595 146.649C160.195 148.215 164.91 150.071 169.121 152.381C170.74 153.278 172.585 154.374 173.937 155.588C175.379 156.877 176.592 157.897 176.505 159.905C176.466 160.612 176.315 161.457 175.911 162.078C175.785 162.268 175.533 162.584 175.267 162.634H175.153V162.631ZM183.396 133.13C183.169 133.065 182.852 132.889 182.662 132.789L182.572 132.749C182.738 132.193 182.788 131.589 182.774 131.058C182.735 129.089 181.688 127.434 180.106 126.084C178.664 124.848 176.732 123.71 175.049 122.801C170.65 120.441 165.759 118.559 161.004 116.982C159.386 116.451 157.655 115.998 155.998 115.567C151.901 114.533 147.718 113.711 143.546 113.118C139.842 112.601 135.986 112.145 132.271 112.058C132.044 112.044 131.663 112.044 131.221 112.044C131.235 112.005 131.26 111.969 131.271 111.93C132.131 111.678 134.544 111.703 135.292 111.714C138.921 111.804 142.701 112.246 146.301 112.763C150.373 113.331 154.455 114.139 158.451 115.148C160.069 115.565 161.749 116.006 163.331 116.524C167.982 118.064 172.75 119.893 177.034 122.205C178.678 123.089 180.562 124.188 181.965 125.399C183.519 126.724 184.532 128.34 184.569 130.258C184.583 131.002 184.479 131.899 184.101 132.556C183.986 132.747 183.734 133.088 183.468 133.124C183.443 133.138 183.418 133.138 183.393 133.124L183.396 133.13ZM175.332 67.1812C175.332 67.1812 173.055 67.0302 171.692 69.049C170.325 71.0818 169.012 75.3486 169.012 75.3486C169.012 75.3486 167.584 75.4381 167.66 74.0736C167.749 72.7091 169.088 68.4926 170.706 67.1057C172.311 65.7161 173.702 66.1327 175.332 67.1812ZM162.525 64.2286C162.525 64.2286 160.248 64.0524 158.885 66.376C157.518 68.7107 156.205 73.6206 156.205 73.6206C156.205 73.6206 154.777 73.7352 154.864 72.1555C154.939 70.5897 156.281 65.7301 157.899 64.1391C159.503 62.5369 160.895 63.0151 162.525 64.2286ZM149.113 63.6218C149.113 63.6218 146.85 63.4457 145.484 65.7804C144.117 68.1039 142.804 73.0251 142.804 73.0251C142.804 73.0251 141.376 73.1397 141.452 71.5599C141.541 69.9829 142.88 65.1345 144.487 63.5323C146.105 61.9414 147.483 62.4083 149.113 63.6218ZM134.978 66.1579C134.978 66.1579 133.032 66.0181 131.943 67.925C130.843 69.8319 129.857 73.8695 129.857 73.8695C129.857 73.8695 128.656 73.9589 128.67 72.6699C128.695 71.3698 129.695 67.3937 131.022 66.0796C132.349 64.7654 133.55 65.1569 134.978 66.1551V66.1579ZM191.74 102.023C191.513 101.948 191.196 101.772 191.006 101.671L190.866 101.595C191.031 101.078 191.107 100.522 191.118 100.018C191.208 97.9605 190.219 96.2326 188.64 94.7926C187.212 93.4924 185.252 92.3068 183.533 91.345C179.07 88.8593 174.052 86.888 169.161 85.2356C167.481 84.6791 165.697 84.201 163.978 83.7592C159.744 82.6604 155.407 81.7908 151.059 81.17C147.923 80.7283 144.675 80.3368 141.463 80.1467C142.423 80.0963 143.448 80.1215 143.902 80.1215C147.606 80.2222 151.423 80.6779 155.091 81.1952C159.223 81.7768 163.334 82.5961 167.352 83.6306C168.981 84.0612 170.689 84.5142 172.269 85.0454C176.919 86.6112 181.688 88.493 185.921 90.8389C187.551 91.7476 189.41 92.8828 190.762 94.1215C192.266 95.472 193.201 97.1133 193.126 99.0818C193.086 99.8507 192.924 100.759 192.493 101.442C192.367 101.632 192.09 101.984 191.824 102.023H191.734H191.74ZM200.35 128.016V189.697C200.35 189.697 199.781 197.714 193.257 204.832C186.722 211.951 181.564 213.718 178.339 213.984C175.116 214.236 172.182 214.023 172.182 214.023C172.182 214.023 181.763 210.525 186.644 204.681C191.51 198.838 192.218 191.792 192.218 189.924V128.13C192.218 128.13 192.675 125.063 196.25 124.923C199.815 124.797 200.271 127.043 200.347 128.016H200.35ZM202.475 84.4387C202.475 84.4387 194.75 77.9629 188.923 73.7576C183.107 69.5663 179.593 67.9501 178.227 69.1133C176.861 70.2765 175.951 75.3374 174.674 76.5369C173.397 77.7365 167.733 77.331 166.585 75.7289C165.423 74.1379 167.57 69.0378 168.682 67.4357C169.807 65.8195 170.793 65.3023 170.793 65.3023C170.793 65.3023 167.797 64.3935 166.685 64.62C165.574 64.8465 164.535 65.895 163.132 69.5299C161.729 73.1649 161.855 74.3644 159.834 74.8956C157.798 75.4129 153.677 74.6691 153.399 72.7482C153.133 70.8413 155.41 64.9472 156.381 63.8735C157.356 62.7998 157.697 62.5984 157.697 62.5984C157.697 62.5984 154.687 62.0308 153.285 62.9508C151.882 63.8735 150.403 67.5196 149.619 69.7676C148.835 72.0157 148.407 73.8191 146.814 74.2497C145.221 74.6803 141.505 74.451 140.455 73.0139C139.405 71.5739 141.113 66.6891 142.048 65.1485C142.972 63.6078 143.616 62.7886 143.616 62.7886C143.616 62.7886 140.48 62.5229 139.178 64.1139C137.876 65.7049 137.003 68.6715 136.801 69.9074C136.599 71.1433 136.434 74.5517 133.83 74.8677C131.226 75.1836 128.23 74.9068 127.737 73.6318C127.231 72.3568 127.939 70.0724 128.395 68.7219C128.852 67.3714 129.216 66.7031 129.216 66.7031C129.216 66.7031 126.676 67.5112 125.652 70.4638C124.616 73.4305 124.677 76.07 123.174 76.7634C121.656 77.4569 119.167 77.4065 119.002 75.9553C118.836 74.5154 119.494 73.4808 119.494 73.4808C119.494 73.4808 117.711 74.6664 116.372 77.0039C115.031 79.3526 114.768 81.0191 114.83 81.4105C114.894 81.802 119.343 80.376 124.929 79.744C130.504 79.1121 131.921 79.1121 132.399 79.1261C132.867 79.1401 133.928 79.6937 133.777 81.0191C133.637 82.3444 132.892 84.5673 132.436 85.2467C131.979 85.9402 131.159 86.9495 128.303 87.2907C125.458 87.6318 120.074 88.0093 117.47 88.4762C114.866 88.9432 113.589 89.4856 113.236 89.6506C112.884 89.8267 110.935 96.7582 111.024 97.1608C111.114 97.5775 114.438 96.2521 120.897 95.5335C127.357 94.8261 129.443 94.7898 129.532 96.3416C129.608 97.8934 128.698 100.256 128.558 100.508C128.418 100.748 127.522 102.465 125.36 102.842C123.185 103.22 119.634 102.918 115.196 103.802C110.758 104.674 109.37 105.127 109.003 105.784C108.625 106.441 106.942 111.818 107.082 112.562C107.222 113.319 109.56 111.905 116.109 111.085C122.658 110.266 124.845 110.277 125.338 111.312C125.831 112.335 124.352 116.121 123.871 116.815C123.403 117.508 121.583 118.28 119.016 118.291C116.462 118.316 111.848 118.898 108.815 119.451C105.78 120.019 104.808 120.449 104.503 121.495C104.187 122.544 102.91 127.554 103.137 127.806C103.364 128.072 105.539 127.138 111.38 126.316C117.221 125.482 120.242 125.331 120.76 125.673C121.267 126.014 121.606 127.224 121.152 128.829C120.696 130.42 120.192 132.327 118.484 132.755C116.764 133.183 112.265 133.096 106.917 134.094C101.569 135.079 101.09 135.369 100.785 136.189C100.468 137.008 99.6228 141.49 99.6228 141.49C99.6228 141.49 99.256 142.374 100.166 142.413C101.076 142.452 102.706 141.605 108.384 140.872C114.062 140.139 116.829 140.025 117.411 141.099C117.994 142.158 116.437 146.213 115.577 146.942C114.704 147.675 109.358 147.711 104.794 148.343C100.23 148.986 97.6012 149.808 97.198 150.275C96.7808 150.742 95.0476 160.54 94.7956 164.286C94.5548 168.036 94.6304 171.897 95.7952 174.361C96.946 176.835 105.833 184.977 105.833 184.977C105.833 184.977 111.358 187.377 136.728 188.196C162.088 189.015 173.148 179.346 176.119 175.155C179.103 170.952 185.955 149.148 185.955 149.148V133.004C185.955 133.004 185.361 134.531 184.247 134.86C183.121 135.176 173.629 127.666 160.987 123.841C148.345 120.016 132.114 119.639 129.51 118.515C126.917 117.391 129.51 111.622 129.51 111.622C129.51 111.622 129.675 110.182 132.103 109.995C134.516 109.805 151.658 110.968 164.793 115.397C177.927 119.815 184.754 125.812 185.26 126.391C185.753 126.973 185.98 127.68 185.98 127.68C185.98 127.68 186.372 125.194 188.648 124.398C190.911 123.615 192.694 123.715 192.694 123.715C192.694 123.715 197.712 105.524 202.478 84.4303L202.475 84.4387Z" fill="#6294A8"/>
<path fill-rule="evenodd" clip-rule="evenodd" d="M211.037 114.898L208.105 126.908C208.041 128.411 207.375 129.879 207.375 129.879L200.076 158.614V189.551C200.076 189.551 199.51 197.579 193.016 204.708C186.511 211.837 181.377 213.607 178.167 213.873C175.689 214.075 173.384 213.988 172.467 213.937C172.191 213.923 172.041 213.912 172.041 213.912H159.582V286L181.628 239.425C216.849 219.12 261.23 193.482 277.777 183.684C281.565 181.433 284.837 179.033 287.655 176.555L210.079 94C210.973 95.7697 211.726 97.7158 212.18 99.7404C213.741 106.643 211.035 114.898 211.035 114.898H211.037Z" fill="#6294A8"/>
<mask id="mask0_1_11" style="mask-type:luminance" maskUnits="userSpaceOnUse" x="12" y="29" width="46" height="218">
<path d="M57.9375 29H12.1974V247H57.9375V29Z" fill="white"/>
</mask>
<g mask="url(#mask0_1_11)">
<path d="M35.0963 223.453H38.2205C38.44 223.453 38.6595 223.461 38.8739 223.47C39.0781 223.482 39.2823 223.499 39.4865 223.521V221.221C39.6397 221.234 39.7877 221.247 39.9358 221.256C40.0889 221.268 40.237 221.285 40.385 221.307V225.445C41.6255 225.628 42.6516 225.982 43.4684 226.501C43.6471 226.582 43.8104 226.684 43.9585 226.808V223.044C45.0203 223.853 45.5512 225.002 45.5512 226.501V240.535C45.5512 240.65 45.4848 240.824 45.347 241.063C45.2143 241.293 44.8569 241.404 44.2852 241.404H43.9585V245.15H41.3039C40.9108 245.15 40.6045 245.078 40.385 244.929V240.807C40.237 240.705 40.14 240.586 40.0991 240.45C40.0583 240.314 40.0379 240.207 40.0379 240.126V226.859C40.0379 226.599 39.9868 226.412 39.8745 226.297C39.7673 226.186 39.6601 226.105 39.5478 226.058C39.5376 226.037 39.5172 226.024 39.4865 226.024V228.289C39.0935 228.132 38.5983 228.051 37.9959 228.051H35.0963V225.377H34.79C33.8813 225.377 33.3147 225.505 33.0952 225.752C32.8655 226.003 32.748 226.241 32.748 226.467V235.783C32.748 236.115 32.7276 236.456 32.6868 236.805C32.6357 237.158 32.5387 237.499 32.4009 237.827V241.676C32.2784 241.983 32.1099 242.281 31.8904 242.562C31.676 242.847 31.3748 243.102 30.9919 243.328C30.3538 243.716 29.4605 244.022 28.317 244.248V240.654C28.1689 240.68 28.0209 240.701 27.8677 240.722C27.7197 240.735 27.5716 240.765 27.4185 240.807V243.856C27.0509 243.89 26.6732 243.92 26.275 243.941C25.8819 243.967 25.4735 243.975 25.0498 243.975H24.7435V241.897H22.2115C22.1604 241.897 22.1298 241.897 22.1298 241.897C22.1196 241.897 22.0992 241.897 22.0685 241.897V242.459C22.0685 242.459 22.0583 242.459 22.0277 242.459V243.72C21.1292 243.72 20.2614 243.643 19.414 243.481V240.535C18.4747 240.343 17.6477 240.041 16.9228 239.632C16.8717 239.59 16.836 239.556 16.8207 239.53C16.7951 239.509 16.7696 239.492 16.739 239.479V243.226C15.5036 242.421 14.8808 241.225 14.8808 239.632V226.246C14.8808 226.101 14.9523 225.918 15.085 225.701C15.2228 225.488 15.5751 225.377 16.1468 225.377H16.739V221.613H19.1281C19.1689 221.613 19.22 221.613 19.271 221.613C19.3272 221.613 19.3731 221.613 19.414 221.613V224.56C19.8377 224.606 20.1082 224.738 20.2308 224.951C20.3431 225.156 20.3941 225.309 20.3941 225.411V238.048C20.3941 238.312 20.4452 238.5 20.5371 238.61C20.634 238.725 20.7413 238.806 20.8638 238.849C21.165 239.019 21.5529 239.113 22.0277 239.121V237.827C22.0583 237.827 22.0685 237.827 22.0685 237.827V235.306C22.1094 235.306 22.1706 235.306 22.2523 235.306C22.3238 235.306 22.385 235.306 22.4361 235.306H24.7435V239.377H25.1927C26.1065 239.377 26.6783 239.253 26.908 239.002C27.1275 238.755 27.2347 238.517 27.2347 238.287V229.005C27.2347 228.779 27.2551 228.558 27.296 228.341C27.3368 228.128 27.3777 227.915 27.4185 227.71V223.197C27.5716 222.597 27.8677 222.069 28.317 221.613V226.654C28.4395 226.484 28.5824 226.339 28.7458 226.212C28.9091 226.088 29.0878 225.965 29.2767 225.837C30.1088 225.339 31.1502 224.998 32.4009 224.815V220.966C33.1769 220.843 34.0243 220.779 34.9329 220.779H35.0963V223.453ZM38.8127 232.99H37.853V239.496H38.8127V232.99ZM26.0912 226.212H25.1111V230.691H26.0912V226.212ZM34.7287 230.929H34.1978V236.703H34.7287V230.929ZM22.2932 228.068H21.8031V233.825H22.2932V228.068Z" fill="#6294A8"/>
<path d="M44.1831 189.767C44.469 189.691 44.714 189.661 44.9182 189.682V192.169C44.9488 192.169 44.9744 192.169 44.9999 192.169C45.0152 192.169 45.0203 192.169 45.0203 192.169C45.1326 192.182 45.2551 192.237 45.3879 192.339C45.5257 192.433 45.5921 192.603 45.5921 192.85V196.171C45.5921 196.525 45.3675 196.801 44.9182 197.006V194.519C44.9182 194.519 44.8723 194.545 44.7753 194.587L44.1831 194.775V197.193L41.8348 197.977V196.171L36.8729 197.84V200.293L34.5246 201.076V199.424L28.6233 201.383V199.952L27.8269 200.208V202.507L24.0697 203.767V202.251L21.7214 203.035V203.222C21.7214 203.222 21.7368 203.231 21.7623 203.239L24.0697 203.989V205.521L27.8269 206.748V204.465L28.6233 204.738V206.169L31.7475 207.19V204.21H32.1559V207.31L33.8303 207.872V204.057C33.8303 203.639 34.0651 203.337 34.5246 203.154V204.806C34.5246 204.806 34.5348 204.806 34.545 204.806C34.5603 204.806 34.5654 204.806 34.5654 204.806L36.8729 204.023V201.57L37.8734 201.229C38.2971 201.127 38.6596 201.17 38.9557 201.349C39.313 201.519 39.4866 201.792 39.4866 202.166V208.962L41.8348 209.728V211.533L44.1831 212.317V209.898L44.8161 210.103C44.8314 210.103 44.8672 210.128 44.9182 210.171V212.657C45.3675 212.819 45.5921 213.083 45.5921 213.458V216.881C45.5921 217.132 45.5257 217.303 45.3879 217.392C45.2551 217.486 45.1326 217.541 45.0203 217.562C44.9795 217.562 44.9488 217.575 44.9182 217.597V215.11C44.714 215.135 44.469 215.101 44.1831 215.008V217.443C44.1576 217.443 44.1423 217.439 44.1423 217.426C44.1423 217.418 44.1423 217.409 44.1423 217.409L41.8348 216.66V214.854L36.8729 213.185V215.638L34.5246 214.854V213.219L28.6233 211.227V209.762L27.8269 209.524V211.823L24.0697 210.546V209.03L21.7214 208.246V210.546L18.3318 209.387C18.3216 209.387 18.3011 209.387 18.2705 209.387C18.245 209.379 18.2195 209.37 18.1888 209.37V210.665C18.0663 210.631 17.9387 210.588 17.8009 210.529C17.6681 210.473 17.5354 210.426 17.4129 210.392V206.509C16.9943 206.339 16.6318 206.177 16.3306 206.015C16.0345 205.845 15.7946 205.67 15.6159 205.487C15.5751 205.419 15.5241 205.351 15.4526 205.283C15.3709 205.206 15.3045 205.125 15.2484 205.044C15.2229 205.01 15.2024 204.972 15.1871 204.925C15.1616 204.883 15.1361 204.849 15.1055 204.823V205.726C14.6868 205.147 14.4724 204.508 14.4724 203.801C14.4724 203.099 14.6868 202.456 15.1055 201.877V200.957C15.6517 200.165 16.4225 199.612 17.4129 199.305V203.188C17.4843 203.167 17.5507 203.145 17.6171 203.12C17.6732 203.099 17.7294 203.082 17.7804 203.069C17.8621 203.048 17.9999 202.992 18.1888 202.899V201.57C18.2195 201.57 18.245 201.566 18.2705 201.553C18.3011 201.545 18.3216 201.536 18.3318 201.536L21.7214 200.395V198.096L24.0697 197.278V198.811L27.8269 197.534V195.234L28.6233 194.996V196.41L34.5246 194.434V196.069L36.8729 195.303V192.85L41.8348 191.164V192.935L44.1423 192.169C44.1423 192.169 44.1576 192.169 44.1831 192.169V189.767ZM40.8547 205.453H41.2427V200.242H40.8547V205.453ZM42.9171 210.852H43.3255V207.446H42.9171V210.852Z" fill="#6294A8"/>
<path d="M29.3992 156.255V152.61H30.216V154.331H34.2387V155.387H36.7299V154.331H40.4871V156.647H41.3447V154.79H43.7951V155.949H44.2852C44.8569 155.949 45.2194 156.064 45.3674 156.289C45.5206 156.519 45.592 156.698 45.592 156.834V159.508C45.592 159.657 45.5206 159.84 45.3674 160.053C45.2194 160.27 44.8569 160.377 44.2852 160.377H43.7951V159.236H41.3447V162.25H40.4871V158.759H36.7299V160.751H34.2387V158.759H30.216V158.486H29.3992V160.683H23.0691V161.313L29.3992 163.459V161.211L30.216 161.501V161.807L34.2387 163.136V165.043L36.7299 165.878V164.107L37.6896 164.447C38.4656 164.652 39.1394 164.869 39.7112 165.094C40.0277 165.243 40.2829 165.38 40.4871 165.503V165.435C40.5841 165.503 40.6862 165.571 40.7934 165.639C40.8904 165.699 40.9874 165.754 41.0793 165.81C41.1916 165.903 41.2784 165.963 41.3447 165.997V168.262C41.4417 168.364 41.5489 168.484 41.6714 168.62C41.7838 168.756 41.8552 168.901 41.8961 169.046C42.0492 169.378 42.1207 169.791 42.1207 170.289V171.566C42.1207 172.022 42.0492 172.431 41.8961 172.793C41.8552 172.942 41.7838 173.078 41.6714 173.201C41.5489 173.329 41.4417 173.452 41.3447 173.576V171.311C41.2937 171.358 41.2426 171.396 41.2018 171.43C41.1507 171.456 41.1099 171.49 41.0793 171.532C40.9874 171.592 40.8904 171.651 40.7934 171.72C40.6862 171.779 40.5841 171.839 40.4871 171.907V171.958C40.2727 172.086 40.0123 172.209 39.7112 172.333C39.1394 172.537 38.4656 172.754 37.6896 172.98L36.7299 173.32V175.092L34.2387 175.943V174.036L30.216 175.415V175.092L29.3992 175.381V177.612L23.0691 179.758V180.337H29.3992V178.14H30.216V178.702H34.2387V180.814H36.7299V177.987H40.4871V176.148H41.3447V179.009H43.7951V178.14H44.2852C44.8569 178.14 45.2194 178.251 45.3674 178.464C45.5206 178.681 45.592 178.864 45.592 179.009V181.683C45.592 181.832 45.5206 182.019 45.3674 182.245C45.2194 182.475 44.8569 182.585 44.2852 182.585H43.7951V184.817H41.3447V185.089H40.4871V183.914H34.2387V185.464H30.216V182.585H29.3992V184.817H23.0691V183.045H20.5779V187.048H19.6794C19.5314 187.048 19.3884 187.048 19.2506 187.048C19.1179 187.048 18.9852 187.048 18.8626 187.048V183.045C17.8417 183.024 17.0249 182.909 16.4123 182.705V184.817C16.3612 184.774 16.3051 184.744 16.2489 184.731C16.1826 184.71 16.1213 184.689 16.0651 184.663C15.279 184.289 14.8808 183.586 14.8808 182.551V179.69C14.8808 179.239 14.9318 178.873 15.0237 178.6C15.1207 178.272 15.3045 177.983 15.5751 177.732C15.7793 177.553 16.06 177.387 16.4123 177.238V175.16C16.4276 175.117 16.4633 175.087 16.5144 175.075C16.5705 175.053 16.6165 175.032 16.6573 175.007C16.8921 174.93 17.1474 174.845 17.4333 174.751C17.7191 174.649 18.0356 174.559 18.3726 174.479L18.8626 174.325V176.71L20.5779 176.148V173.729L23.0691 172.895V174.666L29.3992 172.554V170.323L30.216 170.033V170.34L34.2387 168.978V168.109L30.216 166.746V166.474L29.3992 166.184V168.415L23.0691 166.304V164.566L20.5779 163.732V166.15L18.8626 165.588V163.17L18.3726 163.017C18.0356 162.914 17.7191 162.825 17.4333 162.744C17.1474 162.655 16.8921 162.569 16.6573 162.489C16.5654 162.455 16.4837 162.403 16.4123 162.335V164.447C16.2387 164.392 16.0805 164.324 15.9426 164.243C15.8099 164.153 15.6874 164.068 15.5751 163.987C15.3045 163.74 15.1207 163.451 15.0237 163.119C14.9727 162.974 14.937 162.812 14.9216 162.642C14.8961 162.463 14.8808 162.267 14.8808 162.063V159.236C14.8808 158.214 15.279 157.524 16.0651 157.158C16.1468 157.115 16.2642 157.068 16.4123 157.022V154.91C16.9993 154.684 17.8161 154.565 18.8626 154.552V156.97C18.9852 156.949 19.1179 156.936 19.2506 156.936C19.3884 156.936 19.5314 156.936 19.6794 156.936H20.5779V154.518H23.0691V156.255H29.3992ZM43.4684 173.389H42.9783V177.953H43.4684V173.389ZM18.9035 166.253H18.4542V170.817H18.9035V166.253ZM25.254 168.143H24.8865V172.486H25.254V168.143ZM42.3861 161.91H41.9777V166.253H42.3861V161.91Z" fill="#6294A8"/>
<path d="M35.9744 128.572V126.238H37.8121C37.9091 126.238 37.9959 126.238 38.0776 126.238C38.149 126.238 38.2205 126.238 38.3022 126.238V128.572C38.7667 128.597 39.2313 128.623 39.6907 128.657C40.1553 128.682 40.5841 128.733 40.9772 128.81C41.1303 128.835 41.2784 128.861 41.4264 128.895C41.5796 128.929 41.7123 128.963 41.8348 128.997V126.8C41.988 126.826 42.1207 126.864 42.2432 126.919C42.3657 126.966 42.4882 127.005 42.6108 127.039V130.087C42.8864 130.168 43.157 130.292 43.4275 130.462C44.0708 130.815 44.5659 131.279 44.9182 131.859V128.912C44.9488 128.938 44.9692 128.959 44.9794 128.98C44.9948 128.993 45.0101 129.023 45.0203 129.065C45.4031 129.691 45.592 130.47 45.592 131.399V145.364C45.592 145.943 45.3674 146.497 44.9182 147.016V149.963C44.7038 150.235 44.3873 150.474 43.9789 150.678C43.6419 150.84 43.2591 150.951 42.8354 151.019H42.6108V147.97H41.8348V150.184H38.3022V146.114H35.9744V150.184H32.1967V147.016H31.4412V149.281H25.4786V148.566H23.1712V151.257H18.1888V147.101H17.4128C17.2648 147.067 17.1065 147.025 16.9432 146.965C16.7798 146.91 16.6267 146.855 16.4735 146.795C16.2591 146.671 16.06 146.535 15.8814 146.386V151.887C15.5444 151.593 15.2841 151.253 15.1054 150.865C15.0544 150.763 15.0135 150.653 14.9829 150.525C14.9574 150.401 14.937 150.278 14.9216 150.15H14.8808V132.659C14.8808 132.025 14.9574 131.446 15.1054 130.922C15.2024 130.641 15.3045 130.368 15.4117 130.104C15.524 129.845 15.6772 129.61 15.8814 129.406V127.669C16.157 127.341 16.4531 127.073 16.7798 126.868C16.9738 126.724 17.1882 126.592 17.4333 126.477C17.6681 126.366 17.9182 126.264 18.1888 126.17V128.572C19.3068 128.197 20.6749 128.009 22.2932 128.009H23.1712V127.073H24.376C24.5393 127.073 24.718 127.081 24.9069 127.09C25.1009 127.103 25.2897 127.12 25.4786 127.141V127.856C27.2909 128.018 28.7203 128.512 29.7668 129.338C30.0118 129.134 30.2721 128.955 30.5427 128.793C30.8031 128.623 31.1043 128.465 31.4412 128.316V126.051C31.7168 125.949 31.967 125.872 32.1967 125.812V128.98C33.085 128.708 34.1264 128.572 35.3209 128.572H35.9744ZM38.3022 133.136V129.065C38.2205 129.065 38.1388 129.065 38.0572 129.065C37.9653 129.065 37.8683 129.065 37.7713 129.065H35.9744V133.136H35.2392C34.3969 133.136 33.8048 133.272 33.4627 133.545C33.0543 133.83 32.8501 134.354 32.8501 135.111V141.141C32.8501 141.562 32.6357 141.873 32.1967 142.077V138.909C32.0487 138.969 31.8598 138.995 31.625 138.995H31.4412V141.294H28.5824C28.2302 141.294 27.9392 141.192 27.7044 140.987C27.4746 140.783 27.3572 140.536 27.3572 140.238V134.226C27.3572 133.434 27.1837 132.91 26.8263 132.659C26.5558 132.433 26.1065 132.301 25.4786 132.267V131.552C25.4378 131.552 25.3918 131.552 25.3357 131.552C25.2846 131.552 25.2336 131.552 25.1927 131.552H23.1712V132.489H22.6199C21.8031 132.489 21.2313 132.608 20.9046 132.846C20.5677 133.098 20.3941 133.523 20.3941 134.124V144.904C20.3941 144.939 20.4707 144.956 20.6187 144.956H23.1712V144.036H25.4786V144.751H31.4412V142.486H32.1967V145.637H35.9744V141.583H38.3022V145.62H39.8541C39.9358 145.62 39.9919 145.616 40.0175 145.603C40.0328 145.594 40.0379 145.586 40.0379 145.586V134.771C40.0379 134.136 39.8745 133.715 39.5478 133.511C39.3028 133.298 38.8893 133.17 38.3022 133.136ZM23.5796 141.243H24.376V135.52H23.5796V141.243ZM38.9965 140.272H39.364V135.094H38.9965V140.272ZM36.056 142.537H36.4644V139.506H36.056V142.537ZM21.5785 144.087H21.9869V141.021H21.5785V144.087Z" fill="#6294A8"/>
<path d="M44.1831 94.5448C44.469 94.4681 44.714 94.4383 44.9182 94.4596V96.9462C44.9488 96.9462 44.9744 96.9462 44.9999 96.9462C45.0152 96.9462 45.0203 96.9462 45.0203 96.9462C45.1326 96.959 45.2551 97.0143 45.3879 97.1165C45.5257 97.2102 45.5921 97.3805 45.5921 97.6274V100.949C45.5921 101.302 45.3675 101.579 44.9182 101.783V99.2965C44.9182 99.2965 44.8723 99.3221 44.7753 99.3646L44.1831 99.552V101.97L41.8348 102.754V100.949L36.8729 102.618V105.07L34.5246 105.854V104.202L28.6233 106.16V104.729L27.8269 104.985V107.284L24.0697 108.544V107.029L21.7214 107.812V107.999C21.7214 107.999 21.7368 108.008 21.7623 108.017L24.0697 108.766V110.299L27.8269 111.525V109.243L28.6233 109.515V110.946L31.7475 111.968V108.987H32.1559V112.087L33.8303 112.649V108.834C33.8303 108.417 34.0651 108.114 34.5246 107.931V109.583C34.5246 109.583 34.5348 109.583 34.545 109.583C34.5603 109.583 34.5654 109.583 34.5654 109.583L36.8729 108.8V106.347L37.8734 106.007C38.2971 105.905 38.6596 105.947 38.9557 106.126C39.313 106.296 39.4866 106.569 39.4866 106.944V113.739L41.8348 114.505V116.311L44.1831 117.094V114.676L44.8161 114.88C44.8314 114.88 44.8672 114.906 44.9182 114.948V117.435C45.3675 117.597 45.5921 117.861 45.5921 118.235V121.659C45.5921 121.91 45.5257 122.08 45.3879 122.169C45.2551 122.263 45.1326 122.319 45.0203 122.34C44.9795 122.34 44.9488 122.353 44.9182 122.374V119.887C44.714 119.913 44.469 119.879 44.1831 119.785V122.221C44.1576 122.221 44.1423 122.216 44.1423 122.204C44.1423 122.195 44.1423 122.187 44.1423 122.187L41.8348 121.437V119.632L36.8729 117.963V120.415L34.5246 119.632V117.997L28.6233 116.004V114.539L27.8269 114.301V116.6L24.0697 115.323V113.807L21.7214 113.024V115.323L18.3318 114.165C18.3216 114.165 18.3011 114.165 18.2705 114.165C18.245 114.156 18.2195 114.148 18.1888 114.148V115.442C18.0663 115.408 17.9387 115.365 17.8009 115.306C17.6681 115.251 17.5354 115.204 17.4129 115.17V111.287C16.9943 111.116 16.6318 110.954 16.3306 110.793C16.0345 110.622 15.7946 110.448 15.6159 110.265C15.5751 110.197 15.5241 110.128 15.4526 110.06C15.3709 109.984 15.3045 109.903 15.2484 109.822C15.2229 109.788 15.2024 109.749 15.1871 109.703C15.1616 109.66 15.1361 109.626 15.1055 109.6V110.503C14.6868 109.924 14.4724 109.285 14.4724 108.579C14.4724 107.876 14.6868 107.233 15.1055 106.654V105.734C15.6517 104.942 16.4225 104.389 17.4129 104.082V107.965C17.4843 107.944 17.5507 107.923 17.6171 107.897C17.6732 107.876 17.7294 107.859 17.7804 107.846C17.8621 107.825 17.9999 107.77 18.1888 107.676V106.347C18.2195 106.347 18.245 106.343 18.2705 106.33C18.3011 106.322 18.3216 106.313 18.3318 106.313L21.7214 105.172V102.873L24.0697 102.056V103.588L27.8269 102.311V100.012L28.6233 99.7734V101.187L34.5246 99.2114V100.846L36.8729 100.08V97.6274L41.8348 95.9414V97.7126L44.1423 96.9462C44.1423 96.9462 44.1576 96.9462 44.1831 96.9462V94.5448ZM40.8547 110.231H41.2427V105.019H40.8547V110.231ZM42.9171 115.629H43.3255V112.223H42.9171V115.629Z" fill="#6294A8"/>
<path d="M44.1831 62.5143C44.469 62.4376 44.714 62.4078 44.9182 62.4291V64.9157C44.9488 64.9157 44.9744 64.9157 44.9999 64.9157C45.0152 64.9157 45.0203 64.9157 45.0203 64.9157C45.1326 64.9284 45.2551 64.9838 45.3879 65.086C45.5257 65.1796 45.5921 65.35 45.5921 65.5969V68.918C45.5921 69.2714 45.3675 69.5482 44.9182 69.7525V67.266C44.9182 67.266 44.8723 67.2915 44.7753 67.3341L44.1831 67.5214V69.9399L41.8348 70.7233V68.918L36.8729 70.5871V73.0396L34.5246 73.823V72.171L28.6233 74.1296V72.6989L27.8269 72.9544V75.2536L24.0697 76.5139V74.9982L21.7214 75.7816V75.9689C21.7214 75.9689 21.7368 75.9775 21.7623 75.986L24.0697 76.7354V78.2682L27.8269 79.4944V77.2122L28.6233 77.4847V78.9154L31.7475 79.9372V76.9568H32.1559V80.0564L33.8303 80.6185V76.8035C33.8303 76.3862 34.0651 76.0839 34.5246 75.9008V77.5529C34.5246 77.5529 34.5348 77.5529 34.545 77.5529C34.5603 77.5529 34.5654 77.5529 34.5654 77.5529L36.8729 76.7694V74.3169L37.8734 73.9763C38.2971 73.8741 38.6596 73.9167 38.9557 74.0955C39.313 74.2658 39.4866 74.5383 39.4866 74.913V81.7085L41.8348 82.4749V84.2802L44.1831 85.0636V82.6452L44.8161 82.8496C44.8314 82.8496 44.8672 82.8751 44.9182 82.9177V85.4043C45.3675 85.5661 45.5921 85.83 45.5921 86.2047V89.628C45.5921 89.8792 45.5257 90.0495 45.3879 90.1389C45.2551 90.2326 45.1326 90.288 45.0203 90.3093C44.9795 90.3093 44.9488 90.322 44.9182 90.3433V87.8568C44.714 87.8823 44.469 87.8482 44.1831 87.7546V90.19C44.1576 90.19 44.1423 90.1858 44.1423 90.173C44.1423 90.1645 44.1423 90.156 44.1423 90.156L41.8348 89.4066V87.6013L36.8729 85.9322V88.3847L34.5246 87.6013V85.9663L28.6233 83.9736V82.5089L27.8269 82.2705V84.5697L24.0697 83.2924V81.7766L21.7214 80.9932V83.2924L18.3318 82.1343C18.3216 82.1343 18.3011 82.1343 18.2705 82.1343C18.245 82.1257 18.2195 82.1172 18.1888 82.1172V83.4116C18.0663 83.3775 17.9387 83.335 17.8009 83.2754C17.6681 83.22 17.5354 83.1732 17.4129 83.1391V79.256C16.9943 79.0857 16.6318 78.9239 16.3306 78.7621C16.0345 78.5918 15.7946 78.4172 15.6159 78.2341C15.5751 78.166 15.5241 78.0979 15.4526 78.0297C15.3709 77.9531 15.3045 77.8722 15.2484 77.7913C15.2229 77.7572 15.2024 77.7189 15.1871 77.6721C15.1616 77.6295 15.1361 77.5954 15.1055 77.5699V78.4725C14.6868 77.8935 14.4724 77.2548 14.4724 76.548C14.4724 75.8455 14.6868 75.2025 15.1055 74.6235V73.7038C15.6517 72.9118 16.4225 72.3583 17.4129 72.0518V75.9349C17.4843 75.9136 17.5507 75.8923 17.6171 75.8668C17.6732 75.8455 17.7294 75.8284 17.7804 75.8157C17.8621 75.7944 17.9999 75.739 18.1888 75.6454V74.3169C18.2195 74.3169 18.245 74.3127 18.2705 74.2999C18.3011 74.2914 18.3216 74.2829 18.3318 74.2829L21.7214 73.1418V70.8425L24.0697 70.025V71.5579L27.8269 70.2805V67.9813L28.6233 67.7429V69.1564L34.5246 67.1808V68.8158L36.8729 68.0494V65.5969L41.8348 63.9108V65.6821L44.1423 64.9157C44.1423 64.9157 44.1576 64.9157 44.1831 64.9157V62.5143ZM40.8547 78.2H41.2427V72.9885H40.8547V78.2ZM42.9171 83.5989H43.3255V80.1927H42.9171V83.5989Z" fill="#6294A8"/>
<path d="M27.4594 36.632V34.7415H33.1565C33.1871 34.7415 33.2177 34.7415 33.2586 34.7415C33.2892 34.7415 33.33 34.7415 33.3811 34.7415V36.4787C34.1979 36.4787 34.9687 36.5128 35.6885 36.5809V35.1843C36.781 35.2865 37.7713 35.4057 38.6698 35.542C39.0118 35.6357 39.3589 35.7251 39.7112 35.8145C40.0532 35.9082 40.3748 36.0146 40.6709 36.1381V37.8412C41.3958 38.0924 42.0135 38.4032 42.5291 38.7779C42.6414 38.8248 42.7333 38.8801 42.815 38.9482C42.8865 39.0079 42.9375 39.0504 42.9783 39.0845V37.6368C43.254 37.8412 43.5093 38.0754 43.7543 38.3351V41.1964C44.2342 41.7201 44.5915 42.2481 44.8365 42.7803C45.3419 43.8618 45.5921 45.1263 45.5921 46.5782V57.1887C45.5921 58.2234 45.056 59.0025 43.9789 59.522C43.9381 59.5475 43.8972 59.5646 43.8564 59.5731C43.8155 59.5731 43.7849 59.5859 43.7543 59.6072V56.7289C43.6318 56.7885 43.5093 56.8311 43.3867 56.8651C43.2642 56.8992 43.1315 56.9332 42.9783 56.9673V58.432C42.9528 58.432 42.9324 58.4405 42.9171 58.449C42.8916 58.4618 42.866 58.4661 42.8354 58.4661H40.6709V56.7629H35.6885V58.1254H33.3811V56.4053L27.4594 56.3882V58.2787H26.6834V56.78H22.9262V59.6072H20.5779V56.4053L17.4129 56.3882C17.3618 56.3882 17.3006 56.3797 17.2291 56.3542C17.1474 56.3329 17.0862 56.3116 17.0453 56.2861V59.4198C16.9381 59.3985 16.8411 59.3687 16.7594 59.3347C16.6778 59.2921 16.5859 59.258 16.4736 59.2325C16.4327 59.1984 16.3919 59.1729 16.351 59.1473C16.3102 59.126 16.2796 59.1047 16.2489 59.0792V56.0136C15.4322 55.5367 14.9931 54.8639 14.9217 53.9868H14.8808V43.155C14.8808 41.7243 15.1259 40.4725 15.6159 39.3911C15.8201 39.0079 16.0345 38.6545 16.2489 38.3351V41.4178C16.4531 41.1453 16.7186 40.8557 17.0453 40.5492V37.4154C17.1678 37.292 17.3057 37.1727 17.4537 37.0578C17.6069 36.9471 17.7549 36.8364 17.9029 36.7342C18.6687 36.2147 19.5569 35.8145 20.5779 35.542V38.7439C20.7719 38.6885 20.9761 38.6374 21.1905 38.5906C21.3947 38.5352 21.5989 38.4841 21.8031 38.4373C21.9818 38.3947 22.1656 38.3607 22.3544 38.3351C22.5331 38.3011 22.722 38.2755 22.9262 38.25V35.4228C24.0442 35.278 25.2949 35.1843 26.6834 35.1503V36.6661C26.7804 36.6448 26.8825 36.632 26.9897 36.632C27.0867 36.632 27.1939 36.632 27.3164 36.632H27.4594ZM33.3811 39.34H27.4594V46.97H26.7447C26.7345 46.97 26.7243 46.97 26.7243 46.97C26.7243 46.97 26.714 46.97 26.6834 46.97V39.7487C26.0861 39.7487 25.5297 39.7657 25.009 39.7998C24.4781 39.8254 24.0186 39.8765 23.6205 39.9531C23.4979 39.9786 23.3754 39.9999 23.2529 40.0212C23.1304 40.0468 23.0232 40.0723 22.9262 40.1064V42.9336C22.3953 43.0826 21.9971 43.2486 21.7214 43.4275C21.2722 43.6787 20.9404 44.0661 20.7209 44.5856C20.6953 44.6452 20.6749 44.7048 20.6596 44.7729C20.6341 44.8325 20.6086 44.9049 20.5779 44.9943V41.7584C20.5269 41.9628 20.486 42.1842 20.4554 42.4226C20.4146 42.6611 20.3941 42.9293 20.3941 43.2231V51.8239C20.3941 51.8239 20.4554 51.8409 20.5779 51.875V55.0768C20.6086 55.0768 20.6188 55.0768 20.6188 55.0768H22.9262V52.2497H26.6834V53.7484H27.4594V51.8409H33.3811V53.5951H35.6885V52.1986H37.5467V45.914H38.7719V52.1986H39.8541C39.9358 52.1986 39.992 52.1943 40.0175 52.1815C40.0328 52.173 40.0379 52.1645 40.0379 52.1645V43.5297C40.0379 43.1805 40.0175 42.8484 39.9766 42.5418C39.9256 42.2268 39.849 41.9415 39.752 41.6903C39.5223 41.2134 39.1803 40.8345 38.731 40.5492C38.241 40.2426 37.6029 40.0297 36.8116 39.902C36.638 39.8594 36.4542 39.8296 36.2603 39.8168C36.0714 39.8083 35.8825 39.7913 35.6885 39.7657V41.1623C35.0912 41.107 34.4327 41.0772 33.7078 41.0772H33.3811V39.34ZM33.5649 49.8993H33.9324V43.0868H33.5649V49.8993ZM30.0322 52.7436H30.4406V45.9822H30.0322V52.7436ZM21.2722 52.0282H21.6806V47.7193H21.2722V52.0282Z" fill="#6294A8"/>
</g>
</svg>
